<svg xmlns="http://www.w3.org/2000/svg" xmlns:xlink="http://www.w3.org/1999/xlink" contentStyleType="text/css" data-diagram-type="CLASS" height="673px" preserveAspectRatio="none" style="width:1070px;height:673px;background:#FFFFFF;" version="1.1" viewBox="0 0 1070 673" width="1070px" zoomAndPan="magnify"><defs/><g><!--class Main--><g class="entity" data-entity="Main" data-source-line="1" data-uid="ent0002" id="entity_Main"><rect fill="#F1F1F1" height="48" rx="2.5" ry="2.5" style="stroke:#181818;stroke-width:0.5;" width="65.4209" x="344.5" y="7"/><ellipse cx="359.5" cy="23" fill="#ADD1B2" rx="11" ry="11" style="stroke:#181818;stroke-width:1;"/><path d="M362.4688,28.6406 Q361.8906,28.9375 361.25,29.0781 Q360.6094,29.2344 359.9063,29.2344 Q357.4063,29.2344 356.0781,27.5938 Q354.7656,25.9375 354.7656,22.8125 Q354.7656,19.6875 356.0781,18.0313 Q357.4063,16.375 359.9063,16.375 Q360.6094,16.375 361.25,16.5313 Q361.9063,16.6875 362.4688,16.9844 L362.4688,19.7031 Q361.8438,19.125 361.25,18.8594 Q360.6563,18.5781 360.0313,18.5781 Q358.6875,18.5781 358,19.6563 Q357.3125,20.7188 357.3125,22.8125 Q357.3125,24.9063 358,25.9844 Q358.6875,27.0469 360.0313,27.0469 Q360.6563,27.0469 361.25,26.7813 Q361.8438,26.5 362.4688,25.9219 L362.4688,28.6406 Z " fill="#000000"/><text fill="#000000" font-family="sans-serif" font-size="14" lengthAdjust="spacing" textLength="33.4209" x="373.5" y="27.8467">Main</text><line style="stroke:#181818;stroke-width:0.5;" x1="345.5" x2="408.9209" y1="39" y2="39"/><line style="stroke:#181818;stroke-width:0.5;" x1="345.5" x2="408.9209" y1="47" y2="47"/></g><!--class SatelliteManager--><g class="entity" data-entity="SatelliteManager" data-source-line="3" data-uid="ent0003" id="entity_SatelliteManager"><rect fill="#F1F1F1" height="96.8906" rx="2.5" ry="2.5" style="stroke:#181818;stroke-width:0.5;" width="280.8574" x="236.78" y="115"/><ellipse cx="313.6057" cy="131" fill="#ADD1B2" rx="11" ry="11" style="stroke:#181818;stroke-width:1;"/><path d="M316.5744,136.6406 Q315.9963,136.9375 315.3557,137.0781 Q314.7151,137.2344 314.0119,137.2344 Q311.5119,137.2344 310.1838,135.5938 Q308.8713,133.9375 308.8713,130.8125 Q308.8713,127.6875 310.1838,126.0313 Q311.5119,124.375 314.0119,124.375 Q314.7151,124.375 315.3557,124.5313 Q316.0119,124.6875 316.5744,124.9844 L316.5744,127.7031 Q315.9494,127.125 315.3557,126.8594 Q314.7619,126.5781 314.1369,126.5781 Q312.7932,126.5781 312.1057,127.6563 Q311.4182,128.7188 311.4182,130.8125 Q311.4182,132.9063 312.1057,133.9844 Q312.7932,135.0469 314.1369,135.0469 Q314.7619,135.0469 315.3557,134.7813 Q315.9494,134.5 316.5744,133.9219 L316.5744,136.6406 Z " fill="#000000"/><text fill="#000000" font-family="sans-serif" font-size="14" lengthAdjust="spacing" textLength="118.7061" x="334.1057" y="135.8467">SatelliteManager</text><line style="stroke:#181818;stroke-width:0.5;" x1="237.78" x2="516.6374" y1="147" y2="147"/><rect fill="none" height="6" style="stroke:#C82930;stroke-width:1;" width="6" x="244.78" y="157.6484"/><text fill="#000000" font-family="sans-serif" font-size="14" lengthAdjust="spacing" textLength="225.3535" x="256.78" y="163.9951">static SatelliteManager instance</text><line style="stroke:#181818;stroke-width:0.5;" x1="237.78" x2="516.6374" y1="171.2969" y2="171.2969"/><ellipse cx="247.78" cy="184.9453" fill="#84BE84" rx="3" ry="3" style="stroke:#038048;stroke-width:1;"/><text fill="#000000" font-family="sans-serif" font-size="14" lengthAdjust="spacing" textLength="225.7842" x="256.78" y="188.292">getInstance() : SatelliteManager</text><ellipse cx="247.78" cy="201.2422" fill="#84BE84" rx="3" ry="3" style="stroke:#038048;stroke-width:1;"/><text fill="#000000" font-family="sans-serif" font-size="14" lengthAdjust="spacing" textLength="254.8574" x="256.78" y="204.5889">executeCommand(cmd : Command)</text></g><!--class Command--><g class="entity" data-entity="Command" data-source-line="9" data-uid="ent0004" id="entity_Command"><rect fill="#F1F1F1" height="64.2969" rx="2.5" ry="2.5" style="stroke:#181818;stroke-width:0.5;" width="103.9551" x="495.23" y="271.89"/><ellipse cx="510.23" cy="287.89" fill="#B4A7E5" rx="11" ry="11" style="stroke:#181818;stroke-width:1;"/><path d="M506.1519,283.6556 L506.1519,281.4994 L513.5425,281.4994 L513.5425,283.6556 L511.0738,283.6556 L511.0738,291.7338 L513.5425,291.7338 L513.5425,293.89 L506.1519,293.89 L506.1519,291.7338 L508.6206,291.7338 L508.6206,283.6556 L506.1519,283.6556 Z " fill="#000000"/><text fill="#000000" font-family="sans-serif" font-size="14" font-style="italic" lengthAdjust="spacing" textLength="71.9551" x="524.23" y="292.7367">Command</text><line style="stroke:#181818;stroke-width:0.5;" x1="496.23" x2="598.1851" y1="303.89" y2="303.89"/><line style="stroke:#181818;stroke-width:0.5;" x1="496.23" x2="598.1851" y1="311.89" y2="311.89"/><ellipse cx="506.23" cy="325.5384" fill="#84BE84" rx="3" ry="3" style="stroke:#038048;stroke-width:1;"/><text fill="#000000" font-family="sans-serif" font-size="14" lengthAdjust="spacing" textLength="67.1084" x="515.23" y="328.8851">execute()</text></g><!--class RotateCommand--><g class="entity" data-entity="RotateCommand" data-source-line="13" data-uid="ent0005" id="entity_RotateCommand"><rect fill="#F1F1F1" height="80.5938" rx="2.5" ry="2.5" style="stroke:#181818;stroke-width:0.5;" width="150.4189" x="7" y="396.19"/><ellipse cx="22" cy="412.19" fill="#ADD1B2" rx="11" ry="11" style="stroke:#181818;stroke-width:1;"/><path d="M24.9688,417.8306 Q24.3906,418.1275 23.75,418.2681 Q23.1094,418.4244 22.4063,418.4244 Q19.9063,418.4244 18.5781,416.7838 Q17.2656,415.1275 17.2656,412.0025 Q17.2656,408.8775 18.5781,407.2213 Q19.9063,405.565 22.4063,405.565 Q23.1094,405.565 23.75,405.7213 Q24.4063,405.8775 24.9688,406.1744 L24.9688,408.8931 Q24.3438,408.315 23.75,408.0494 Q23.1563,407.7681 22.5313,407.7681 Q21.1875,407.7681 20.5,408.8463 Q19.8125,409.9088 19.8125,412.0025 Q19.8125,414.0963 20.5,415.1744 Q21.1875,416.2369 22.5313,416.2369 Q23.1563,416.2369 23.75,415.9713 Q24.3438,415.69 24.9688,415.1119 L24.9688,417.8306 Z " fill="#000000"/><text fill="#000000" font-family="sans-serif" font-size="14" lengthAdjust="spacing" textLength="118.4189" x="36" y="417.0367">RotateCommand</text><line style="stroke:#181818;stroke-width:0.5;" x1="8" x2="156.4189" y1="428.19" y2="428.19"/><rect fill="none" height="6" style="stroke:#C82930;stroke-width:1;" width="6" x="15" y="438.8384"/><text fill="#000000" font-family="sans-serif" font-size="14" lengthAdjust="spacing" textLength="117.0586" x="27" y="445.1851">direction : String</text><line style="stroke:#181818;stroke-width:0.5;" x1="8" x2="156.4189" y1="452.4869" y2="452.4869"/><ellipse cx="18" cy="466.1353" fill="#84BE84" rx="3" ry="3" style="stroke:#038048;stroke-width:1;"/><text fill="#000000" font-family="sans-serif" font-size="14" lengthAdjust="spacing" textLength="67.1084" x="27" y="469.482">execute()</text></g><!--class ActivatePanelsCommand--><g class="entity" data-entity="ActivatePanelsCommand" data-source-line="18" data-uid="ent0006" id="entity_ActivatePanelsCommand"><rect fill="#F1F1F1" height="64.2969" rx="2.5" ry="2.5" style="stroke:#181818;stroke-width:0.5;" width="207.2666" x="192.58" y="404.34"/><ellipse cx="207.58" cy="420.34" fill="#ADD1B2" rx="11" ry="11" style="stroke:#181818;stroke-width:1;"/><path d="M210.5488,425.9806 Q209.9706,426.2775 209.33,426.4181 Q208.6894,426.5744 207.9863,426.5744 Q205.4863,426.5744 204.1581,424.9338 Q202.8456,423.2775 202.8456,420.1525 Q202.8456,417.0275 204.1581,415.3713 Q205.4863,413.715 207.9863,413.715 Q208.6894,413.715 209.33,413.8713 Q209.9863,414.0275 210.5488,414.3244 L210.5488,417.0431 Q209.9238,416.465 209.33,416.1994 Q208.7363,415.9181 208.1113,415.9181 Q206.7675,415.9181 206.08,416.9963 Q205.3925,418.0588 205.3925,420.1525 Q205.3925,422.2463 206.08,423.3244 Q206.7675,424.3869 208.1113,424.3869 Q208.7363,424.3869 209.33,424.1213 Q209.9238,423.84 210.5488,423.2619 L210.5488,425.9806 Z " fill="#000000"/><text fill="#000000" font-family="sans-serif" font-size="14" lengthAdjust="spacing" textLength="175.2666" x="221.58" y="425.1867">ActivatePanelsCommand</text><line style="stroke:#181818;stroke-width:0.5;" x1="193.58" x2="398.8466" y1="436.34" y2="436.34"/><line style="stroke:#181818;stroke-width:0.5;" x1="193.58" x2="398.8466" y1="444.34" y2="444.34"/><ellipse cx="203.58" cy="457.9884" fill="#84BE84" rx="3" ry="3" style="stroke:#038048;stroke-width:1;"/><text fill="#000000" font-family="sans-serif" font-size="14" lengthAdjust="spacing" textLength="67.1084" x="212.58" y="461.3351">execute()</text></g><!--class DeactivatePanelsCommand--><g class="entity" data-entity="DeactivatePanelsCommand" data-source-line="22" data-uid="ent0007" id="entity_DeactivatePanelsCommand"><rect fill="#F1F1F1" height="64.2969" rx="2.5" ry="2.5" style="stroke:#181818;stroke-width:0.5;" width="225.6621" x="434.38" y="404.34"/><ellipse cx="449.38" cy="420.34" fill="#ADD1B2" rx="11" ry="11" style="stroke:#181818;stroke-width:1;"/><path d="M452.3488,425.9806 Q451.7706,426.2775 451.13,426.4181 Q450.4894,426.5744 449.7863,426.5744 Q447.2863,426.5744 445.9581,424.9338 Q444.6456,423.2775 444.6456,420.1525 Q444.6456,417.0275 445.9581,415.3713 Q447.2863,413.715 449.7863,413.715 Q450.4894,413.715 451.13,413.8713 Q451.7863,414.0275 452.3488,414.3244 L452.3488,417.0431 Q451.7238,416.465 451.13,416.1994 Q450.5363,415.9181 449.9113,415.9181 Q448.5675,415.9181 447.88,416.9963 Q447.1925,418.0588 447.1925,420.1525 Q447.1925,422.2463 447.88,423.3244 Q448.5675,424.3869 449.9113,424.3869 Q450.5363,424.3869 451.13,424.1213 Q451.7238,423.84 452.3488,423.2619 L452.3488,425.9806 Z " fill="#000000"/><text fill="#000000" font-family="sans-serif" font-size="14" lengthAdjust="spacing" textLength="193.6621" x="463.38" y="425.1867">DeactivatePanelsCommand</text><line style="stroke:#181818;stroke-width:0.5;" x1="435.38" x2="659.0421" y1="436.34" y2="436.34"/><line style="stroke:#181818;stroke-width:0.5;" x1="435.38" x2="659.0421" y1="444.34" y2="444.34"/><ellipse cx="445.38" cy="457.9884" fill="#84BE84" rx="3" ry="3" style="stroke:#038048;stroke-width:1;"/><text fill="#000000" font-family="sans-serif" font-size="14" lengthAdjust="spacing" textLength="67.1084" x="454.38" y="461.3351">execute()</text></g><!--class CollectDataCommand--><g class="entity" data-entity="CollectDataCommand" data-source-line="26" data-uid="ent0008" id="entity_CollectDataCommand"><rect fill="#F1F1F1" height="64.2969" rx="2.5" ry="2.5" style="stroke:#181818;stroke-width:0.5;" width="185.3027" x="694.56" y="404.34"/><ellipse cx="709.56" cy="420.34" fill="#ADD1B2" rx="11" ry="11" style="stroke:#181818;stroke-width:1;"/><path d="M712.5288,425.9806 Q711.9506,426.2775 711.31,426.4181 Q710.6694,426.5744 709.9663,426.5744 Q707.4663,426.5744 706.1381,424.9338 Q704.8256,423.2775 704.8256,420.1525 Q704.8256,417.0275 706.1381,415.3713 Q707.4663,413.715 709.9663,413.715 Q710.6694,413.715 711.31,413.8713 Q711.9663,414.0275 712.5288,414.3244 L712.5288,417.0431 Q711.9038,416.465 711.31,416.1994 Q710.7163,415.9181 710.0913,415.9181 Q708.7475,415.9181 708.06,416.9963 Q707.3725,418.0588 707.3725,420.1525 Q707.3725,422.2463 708.06,423.3244 Q708.7475,424.3869 710.0913,424.3869 Q710.7163,424.3869 711.31,424.1213 Q711.9038,423.84 712.5288,423.2619 L712.5288,425.9806 Z " fill="#000000"/><text fill="#000000" font-family="sans-serif" font-size="14" lengthAdjust="spacing" textLength="153.3027" x="723.56" y="425.1867">CollectDataCommand</text><line style="stroke:#181818;stroke-width:0.5;" x1="695.56" x2="878.8627" y1="436.34" y2="436.34"/><line style="stroke:#181818;stroke-width:0.5;" x1="695.56" x2="878.8627" y1="444.34" y2="444.34"/><ellipse cx="705.56" cy="457.9884" fill="#84BE84" rx="3" ry="3" style="stroke:#038048;stroke-width:1;"/><text fill="#000000" font-family="sans-serif" font-size="14" lengthAdjust="spacing" textLength="67.1084" x="714.56" y="461.3351">execute()</text></g><!--class StatusCommand--><g class="entity" data-entity="StatusCommand" data-source-line="30" data-uid="ent0009" id="entity_StatusCommand"><rect fill="#F1F1F1" height="64.2969" rx="2.5" ry="2.5" style="stroke:#181818;stroke-width:0.5;" width="148.5664" x="914.93" y="404.34"/><ellipse cx="929.93" cy="420.34" fill="#ADD1B2" rx="11" ry="11" style="stroke:#181818;stroke-width:1;"/><path d="M932.8988,425.9806 Q932.3206,426.2775 931.68,426.4181 Q931.0394,426.5744 930.3363,426.5744 Q927.8363,426.5744 926.5081,424.9338 Q925.1956,423.2775 925.1956,420.1525 Q925.1956,417.0275 926.5081,415.3713 Q927.8363,413.715 930.3363,413.715 Q931.0394,413.715 931.68,413.8713 Q932.3363,414.0275 932.8988,414.3244 L932.8988,417.0431 Q932.2738,416.465 931.68,416.1994 Q931.0863,415.9181 930.4613,415.9181 Q929.1175,415.9181 928.43,416.9963 Q927.7425,418.0588 927.7425,420.1525 Q927.7425,422.2463 928.43,423.3244 Q929.1175,424.3869 930.4613,424.3869 Q931.0863,424.3869 931.68,424.1213 Q932.2738,423.84 932.8988,423.2619 L932.8988,425.9806 Z " fill="#000000"/><text fill="#000000" font-family="sans-serif" font-size="14" lengthAdjust="spacing" textLength="116.5664" x="943.93" y="425.1867">StatusCommand</text><line style="stroke:#181818;stroke-width:0.5;" x1="915.93" x2="1062.4964" y1="436.34" y2="436.34"/><line style="stroke:#181818;stroke-width:0.5;" x1="915.93" x2="1062.4964" y1="444.34" y2="444.34"/><ellipse cx="925.93" cy="457.9884" fill="#84BE84" rx="3" ry="3" style="stroke:#038048;stroke-width:1;"/><text fill="#000000" font-family="sans-serif" font-size="14" lengthAdjust="spacing" textLength="67.1084" x="934.93" y="461.3351">execute()</text></g><!--class CommandFactory--><g class="entity" data-entity="CommandFactory" data-source-line="34" data-uid="ent0010" id="entity_CommandFactory"><rect fill="#F1F1F1" height="64.2969" rx="2.5" ry="2.5" style="stroke:#181818;stroke-width:0.5;" width="330.6094" x="552.9" y="131.3"/><ellipse cx="651.7647" cy="147.3" fill="#ADD1B2" rx="11" ry="11" style="stroke:#181818;stroke-width:1;"/><path d="M654.7335,152.9406 Q654.1554,153.2375 653.5147,153.3781 Q652.8741,153.5344 652.171,153.5344 Q649.671,153.5344 648.3429,151.8937 Q647.0304,150.2375 647.0304,147.1125 Q647.0304,143.9875 648.3429,142.3312 Q649.671,140.675 652.171,140.675 Q652.8741,140.675 653.5147,140.8312 Q654.171,140.9875 654.7335,141.2844 L654.7335,144.0031 Q654.1085,143.425 653.5147,143.1594 Q652.921,142.8781 652.296,142.8781 Q650.9522,142.8781 650.2647,143.9562 Q649.5772,145.0187 649.5772,147.1125 Q649.5772,149.2062 650.2647,150.2844 Q650.9522,151.3469 652.296,151.3469 Q652.921,151.3469 653.5147,151.0812 Q654.1085,150.8 654.7335,150.2219 L654.7335,152.9406 Z " fill="#000000"/><text fill="#000000" font-family="sans-serif" font-size="14" lengthAdjust="spacing" textLength="124.3799" x="672.2647" y="152.1467">CommandFactory</text><line style="stroke:#181818;stroke-width:0.5;" x1="553.9" x2="882.5094" y1="163.3" y2="163.3"/><line style="stroke:#181818;stroke-width:0.5;" x1="553.9" x2="882.5094" y1="171.3" y2="171.3"/><ellipse cx="563.9" cy="184.9484" fill="#84BE84" rx="3" ry="3" style="stroke:#038048;stroke-width:1;"/><text fill="#000000" font-family="sans-serif" font-size="14" lengthAdjust="spacing" textLength="304.6094" x="572.9" y="188.2951">createCommand(input : String) : Command</text></g><!--class Satellite--><g class="entity" data-entity="Satellite" data-source-line="38" data-uid="ent0011" id="entity_Satellite"><rect fill="#F1F1F1" height="129.4844" rx="2.5" ry="2.5" style="stroke:#181818;stroke-width:0.5;" width="218.917" x="437.75" y="536.79"/><ellipse cx="514.2886" cy="552.79" fill="#ADD1B2" rx="11" ry="11" style="stroke:#181818;stroke-width:1;"/><path d="M517.2573,558.4306 Q516.6792,558.7275 516.0386,558.8681 Q515.3979,559.0244 514.6948,559.0244 Q512.1948,559.0244 510.8667,557.3838 Q509.5542,555.7275 509.5542,552.6025 Q509.5542,549.4775 510.8667,547.8213 Q512.1948,546.165 514.6948,546.165 Q515.3979,546.165 516.0386,546.3213 Q516.6948,546.4775 517.2573,546.7744 L517.2573,549.4931 Q516.6323,548.915 516.0386,548.6494 Q515.4448,548.3681 514.8198,548.3681 Q513.4761,548.3681 512.7886,549.4463 Q512.1011,550.5088 512.1011,552.6025 Q512.1011,554.6963 512.7886,555.7744 Q513.4761,556.8369 514.8198,556.8369 Q515.4448,556.8369 516.0386,556.5713 Q516.6323,556.29 517.2573,555.7119 L517.2573,558.4306 Z " fill="#000000"/><text fill="#000000" font-family="sans-serif" font-size="14" lengthAdjust="spacing" textLength="57.3398" x="534.7886" y="557.6367">Satellite</text><line style="stroke:#181818;stroke-width:0.5;" x1="438.75" x2="655.667" y1="568.79" y2="568.79"/><rect fill="none" height="6" style="stroke:#C82930;stroke-width:1;" width="6" x="445.75" y="579.4384"/><text fill="#000000" font-family="sans-serif" font-size="14" lengthAdjust="spacing" textLength="131.9814" x="457.75" y="585.7851">orientation : String</text><rect fill="none" height="6" style="stroke:#C82930;stroke-width:1;" width="6" x="445.75" y="595.7353"/><text fill="#000000" font-family="sans-serif" font-size="14" lengthAdjust="spacing" textLength="192.917" x="457.75" y="602.082">solarPanelsActive : boolean</text><rect fill="none" height="6" style="stroke:#C82930;stroke-width:1;" width="6" x="445.75" y="612.0322"/><text fill="#000000" font-family="sans-serif" font-size="14" lengthAdjust="spacing" textLength="128.8232" x="457.75" y="618.3789">dataCollected : int</text><ellipse cx="448.75" cy="631.3291" fill="none" rx="3" ry="3" style="stroke:#038048;stroke-width:1;"/><text fill="#000000" font-family="sans-serif" font-size="14" lengthAdjust="spacing" textLength="103.4072" x="457.75" y="634.6757">setters/getters</text><line style="stroke:#181818;stroke-width:0.5;" x1="438.75" x2="655.667" y1="641.9775" y2="641.9775"/><ellipse cx="448.75" cy="655.6259" fill="#84BE84" rx="3" ry="3" style="stroke:#038048;stroke-width:1;"/><text fill="#000000" font-family="sans-serif" font-size="14" lengthAdjust="spacing" textLength="164.418" x="457.75" y="658.9726">getInstance() : Satellite</text></g><!--class InvalidCommandException--><g class="entity" data-entity="InvalidCommandException" data-source-line="46" data-uid="ent0012" id="entity_InvalidCommandException"><rect fill="#F1F1F1" height="48" rx="2.5" ry="2.5" style="stroke:#181818;stroke-width:0.5;" width="219.6328" x="445.39" y="7"/><ellipse cx="460.39" cy="23" fill="#ADD1B2" rx="11" ry="11" style="stroke:#181818;stroke-width:1;"/><path d="M463.3588,28.6406 Q462.7806,28.9375 462.14,29.0781 Q461.4994,29.2344 460.7963,29.2344 Q458.2963,29.2344 456.9681,27.5938 Q455.6556,25.9375 455.6556,22.8125 Q455.6556,19.6875 456.9681,18.0313 Q458.2963,16.375 460.7963,16.375 Q461.4994,16.375 462.14,16.5313 Q462.7963,16.6875 463.3588,16.9844 L463.3588,19.7031 Q462.7338,19.125 462.14,18.8594 Q461.5463,18.5781 460.9213,18.5781 Q459.5775,18.5781 458.89,19.6563 Q458.2025,20.7188 458.2025,22.8125 Q458.2025,24.9063 458.89,25.9844 Q459.5775,27.0469 460.9213,27.0469 Q461.5463,27.0469 462.14,26.7813 Q462.7338,26.5 463.3588,25.9219 L463.3588,28.6406 Z " fill="#000000"/><text fill="#000000" font-family="sans-serif" font-size="14" lengthAdjust="spacing" textLength="187.6328" x="474.39" y="27.8467">InvalidCommandException</text><line style="stroke:#181818;stroke-width:0.5;" x1="446.39" x2="664.0228" y1="39" y2="39"/><line style="stroke:#181818;stroke-width:0.5;" x1="446.39" x2="664.0228" y1="47" y2="47"/></g><!--link Main to SatelliteManager--><g class="link" data-entity-1="Main" data-entity-2="SatelliteManager" data-source-line="49" data-uid="lnk13" id="link_Main_SatelliteManager"><path codeLine="49" d="M377.21,55.33 C377.21,71.81 377.21,88.5 377.21,108.75" fill="none" id="Main-to-SatelliteManager" style="stroke:#181818;stroke-width:1;"/><polygon fill="#181818" points="377.21,114.75,381.21,105.75,377.21,109.75,373.21,105.75,377.21,114.75" style="stroke:#181818;stroke-width:1;"/></g><!--link SatelliteManager to Command--><g class="link" data-entity-1="SatelliteManager" data-entity-2="Command" data-source-line="50" data-uid="lnk14" id="link_SatelliteManager_Command"><path codeLine="50" d="M435.71,212.15 C459.82,231.8 482.4393,250.239 503.9693,267.789" fill="none" id="SatelliteManager-to-Command" style="stroke:#181818;stroke-width:1;"/><polygon fill="#181818" points="508.62,271.58,504.1713,262.7931,504.7444,268.4209,499.1167,268.994,508.62,271.58" style="stroke:#181818;stroke-width:1;"/></g><!--reverse link Command to RotateCommand--><g class="link" data-entity-1="Command" data-entity-2="RotateCommand" data-source-line="51" data-uid="lnk15" id="link_Command_RotateCommand"><path codeLine="51" d="M477.3724,318.6341 C404.7224,333.2241 287.09,359.11 175.21,396.19 C169.47,398.09 163.59,400.2 157.71,402.41" fill="none" id="Command-backto-RotateCommand" style="stroke:#181818;stroke-width:1;stroke-dasharray:7,7;"/><polygon fill="none" points="495.02,315.09,476.191,312.7516,478.5537,324.5167,495.02,315.09" style="stroke:#181818;stroke-width:1;"/></g><!--reverse link Command to ActivatePanelsCommand--><g class="link" data-entity-1="Command" data-entity-2="ActivatePanelsCommand" data-source-line="52" data-uid="lnk16" id="link_Command_ActivatePanelsCommand"><path codeLine="52" d="M478.9285,340.5313 C438.6985,361.4413 399.02,382.06 356.84,403.98" fill="none" id="Command-backto-ActivatePanelsCommand" style="stroke:#181818;stroke-width:1;stroke-dasharray:7,7;"/><polygon fill="none" points="494.9,332.23,476.1614,335.2075,481.6957,345.8552,494.9,332.23" style="stroke:#181818;stroke-width:1;"/></g><!--reverse link Command to DeactivatePanelsCommand--><g class="link" data-entity-1="Command" data-entity-2="DeactivatePanelsCommand" data-source-line="53" data-uid="lnk17" id="link_Command_DeactivatePanelsCommand"><path codeLine="53" d="M547.21,354.62 C547.21,375.13 547.21,383.75 547.21,404.2" fill="none" id="Command-backto-DeactivatePanelsCommand" style="stroke:#181818;stroke-width:1;stroke-dasharray:7,7;"/><polygon fill="none" points="547.21,336.62,541.21,354.62,553.21,354.62,547.21,336.62" style="stroke:#181818;stroke-width:1;"/></g><!--reverse link Command to CollectDataCommand--><g class="link" data-entity-1="Command" data-entity-2="CollectDataCommand" data-source-line="54" data-uid="lnk18" id="link_Command_CollectDataCommand"><path codeLine="54" d="M615.3963,342.1032 C653.6063,362.8632 689.57,382.42 729.06,403.88" fill="none" id="Command-backto-CollectDataCommand" style="stroke:#181818;stroke-width:1;stroke-dasharray:7,7;"/><polygon fill="none" points="599.58,333.51,612.5319,347.3753,618.2607,336.8311,599.58,333.51" style="stroke:#181818;stroke-width:1;"/></g><!--reverse link Command to StatusCommand--><g class="link" data-entity-1="Command" data-entity-2="StatusCommand" data-source-line="55" data-uid="lnk19" id="link_Command_StatusCommand"><path codeLine="55" d="M617.0997,319.9673 C686.1497,335.1573 793.52,360.77 897.21,396.19 C904.03,398.52 911.06,401.13 918.04,403.86" fill="none" id="Command-backto-StatusCommand" style="stroke:#181818;stroke-width:1;stroke-dasharray:7,7;"/><polygon fill="none" points="599.52,316.1,615.8106,325.8272,618.3887,314.1074,599.52,316.1" style="stroke:#181818;stroke-width:1;"/></g><!--link CommandFactory to Command--><g class="link" data-entity-1="CommandFactory" data-entity-2="Command" data-source-line="57" data-uid="lnk20" id="link_CommandFactory_Command"><path codeLine="57" d="M679.41,195.9 C651.52,218.5 618.7312,245.072 590.8112,267.702" fill="none" id="CommandFactory-to-Command" style="stroke:#181818;stroke-width:1;"/><polygon fill="#181818" points="586.15,271.48,595.6604,268.9204,590.0343,268.3316,590.6231,262.7055,586.15,271.48" style="stroke:#181818;stroke-width:1;"/></g><!--link RotateCommand to Satellite--><g class="link" data-entity-1="RotateCommand" data-entity-2="Satellite" data-source-line="58" data-uid="lnk21" id="link_RotateCommand_Satellite"><path codeLine="58" d="M157.89,470.05 C163.73,472.38 169.55,474.65 175.21,476.79 C262.46,509.67 357.1522,540.9816 431.6422,564.6716" fill="none" id="RotateCommand-to-Satellite" style="stroke:#181818;stroke-width:1;"/><polygon fill="#181818" points="437.36,566.49,429.9956,559.9505,432.5952,564.9746,427.571,567.5742,437.36,566.49" style="stroke:#181818;stroke-width:1;"/></g><!--link ActivatePanelsCommand to Satellite--><g class="link" data-entity-1="ActivatePanelsCommand" data-entity-2="Satellite" data-source-line="59" data-uid="lnk22" id="link_ActivatePanelsCommand_Satellite"><path codeLine="59" d="M344.9,469.12 C374.34,488.24 407.9085,510.0414 443.4985,533.1614" fill="none" id="ActivatePanelsCommand-to-Satellite" style="stroke:#181818;stroke-width:1;"/><polygon fill="#181818" points="448.53,536.43,443.1618,528.1728,444.3371,533.7062,438.8036,534.8815,448.53,536.43" style="stroke:#181818;stroke-width:1;"/></g><!--link DeactivatePanelsCommand to Satellite--><g class="link" data-entity-1="DeactivatePanelsCommand" data-entity-2="Satellite" data-source-line="60" data-uid="lnk23" id="link_DeactivatePanelsCommand_Satellite"><path codeLine="60" d="M547.21,468.92 C547.21,488.08 547.21,507.26 547.21,530.46" fill="none" id="DeactivatePanelsCommand-to-Satellite" style="stroke:#181818;stroke-width:1;"/><polygon fill="#181818" points="547.21,536.46,551.21,527.46,547.21,531.46,543.21,527.46,547.21,536.46" style="stroke:#181818;stroke-width:1;"/></g><!--link CollectDataCommand to Satellite--><g class="link" data-entity-1="CollectDataCommand" data-entity-2="Satellite" data-source-line="61" data-uid="lnk24" id="link_CollectDataCommand_Satellite"><path codeLine="61" d="M740.65,469.12 C712.43,488.29 680.373,510.0683 646.283,533.2283" fill="none" id="CollectDataCommand-to-Satellite" style="stroke:#181818;stroke-width:1;"/><polygon fill="#181818" points="641.32,536.6,651.0123,534.851,645.4558,533.7902,646.5167,528.2337,641.32,536.6" style="stroke:#181818;stroke-width:1;"/></g><!--link StatusCommand to Satellite--><g class="link" data-entity-1="StatusCommand" data-entity-2="Satellite" data-source-line="62" data-uid="lnk25" id="link_StatusCommand_Satellite"><path codeLine="62" d="M916.32,469.13 C909.88,471.77 903.44,474.36 897.21,476.79 C817.5,507.86 732.0167,538.047 662.7167,561.767" fill="none" id="StatusCommand-to-Satellite" style="stroke:#181818;stroke-width:1;"/><polygon fill="#181818" points="657.04,563.71,666.8504,564.5799,661.7706,562.0908,664.2597,557.011,657.04,563.71" style="stroke:#181818;stroke-width:1;"/></g><!--SRC=[bPB1JiCm38RlUOhSw8GwxWWXeGsa7IQXxGbCQagap9cIR1e2tXqtRRUPRWnERUhFpU_Vlt4Gevw39QLCVbz2GkTimZaGr1ZqXzAwr351icPOjSGLCiZGjQunpRfpCTAt0pf3k4EpIJZngnLGLPXLnMHt6galfImb3AzWiF-Q9UmRYmorOXUUPU4nLkhA1ZJ9Uce4f62fFjVzmDYM-v-1qCMBbqqH_jSmySwnb2aakCWkUP3DNtwPWITMuiDxnvc01nSAI-jDsiy-EfXxT5c_byuo7onIis1f6c_TEmZjjDaivFABzmw1Mg_pQ7bARDR8g_iz2BaQCV66uqtTFW-wPhG5PwjEx-FEuBhHfDILNg3B-kARNKVL15QNvVqmOOE0DbHlG6_ltUTuBBCZIoU38P4pOP3GC02oBfQkr8_b7YkNGHUJgzCnbiovx4hgH60b85CgQjy0]--></g></svg>